<?xml version="1.0" encoding="utf-8"?>
<!-- Generator: Adobe Illustrator 26.2.1, SVG Export Plug-In . SVG Version: 6.00 Build 0)  -->
<svg version="1.1" id="a" xmlns="http://www.w3.org/2000/svg" xmlns:xlink="http://www.w3.org/1999/xlink" x="0px" y="0px"
	 viewBox="0 0 2530 5056" style="enable-background:new 0 0 2530 5056;" xml:space="preserve">
<g id="b">
	<polygon style="fill:#27AC38;stroke:#231815;stroke-miterlimit:10;" points="1662.5,1188.2 1655.5,1184.2 1638.5,1181.2 
		1620.5,1172.2 1614.5,1165.2 1599.5,1158.2 1584.5,1151.2 1579.5,1145.2 1561.5,1139.2 1545.5,1127.2 1513.5,1114.2 1482.5,1105.2 
		1471.5,1105.2 1461.5,1156.2 1455.3,1188.2 1449.5,1233.2 1429.5,1322.2 1420.5,1358.2 1439.9,1365.7 1454.5,1373.2 1468.5,1385.2 
		1484.5,1395.2 1506.5,1406.2 1522.5,1408.2 1548.5,1417.2 1568.5,1424.2 1578.5,1420.2 1580.6,1406.2 1593.5,1374.2 1611.5,1321.2 
		1642.5,1331.2 1659.5,1333.2 1666.5,1333.2 1671.5,1330.2 1685.4,1310.2 1677.5,1310.2 1644.5,1296.2 1628.5,1285.2 1624.5,1282.2 
		1625.5,1281.2 	"/>
	<polygon style="fill:#27AC38;stroke:#231815;stroke-miterlimit:10;" points="2326.7,1183.2 2323.1,1179.2 2299.1,1174.2 
		2278.1,1162.2 2269.1,1159.2 2242.1,1144.2 2235.1,1142.2 2218.1,1128.2 2207.1,1121.2 2178.1,1106.2 2160.1,1100.2 2128.1,1183.2 
		2110.1,1242.2 2096.1,1270.2 2074,1324.2 2056.1,1361.2 2078.1,1373.2 2095.1,1381.9 2109.1,1393.2 2127.1,1403.2 2144.1,1413.2 
		2160.1,1416.2 2208.1,1435.2 2211.9,1437.1 2256.1,1332.2 2285.1,1344.2 2291.1,1345.2 2291.1,1330.2 2287.1,1316.2 2290.1,1312.2 
		2271.1,1299.2 2273.6,1291.7 2308.1,1226.2 2326.7,1186.4 	"/>
	<polygon style="fill:#27AC38;stroke:#231815;stroke-miterlimit:10;" points="956.5,2011.2 947.5,2003.2 936.5,2000.2 936.5,1994.2 
		933.5,1984.2 923.5,1971.2 909.5,2004.2 854.5,2150.1 850.5,2166.1 830.5,2213.1 844.5,2212.1 857.2,2213.1 865.5,2213.1 
		874.5,2211.1 882.5,2205.1 893.5,2176.2 894.5,2152.1 898.5,2148.1 898.5,2144.1 912,2107 916.5,2108.1 920.5,2104.1 941.5,2050.1 
		947.5,2041.2 	"/>
	<polygon style="fill:#27AC38;stroke:#231815;stroke-miterlimit:10;" points="304.9,1935.2 268.9,2011.1 274,2019.2 299.9,2017.5 
		299.9,2012.2 337.8,2019.2 342.9,2012.2 374.9,2010.2 393.4,2019.4 405.9,2019.4 423.9,2028.2 419.9,2058.1 412.9,2078.1 
		403.9,2094.1 396.9,2099.1 388.9,2131.1 389.9,2141.1 367.9,2142.1 341.9,2198.1 329.9,2214.1 287.9,2170.1 216.9,2171.1 
		221.1,2107.6 202.4,2144.1 199.9,2144.1 181.9,2180.1 202.4,2191.6 216.9,2204.1 226.9,2213.1 244.9,2226.1 259.9,2236.1 
		277.9,2242.1 319.9,2266.1 323.9,2268.1 378.9,2169.1 385.9,2172.1 383.9,2161.1 394.9,2143.1 400.9,2129.1 405.9,2123.1 
		441.9,2069.1 462.9,2034.2 457.9,2030.2 443.9,2024.2 436.9,2023.2 427.9,2017.2 414.9,2006.2 409.9,2004.2 403.9,2000.2 
		393.9,1993.2 381.9,1985.2 373.9,1983.2 365.9,1974.2 357.9,1966.2 345.9,1958.2 335.9,1951.2 322.4,1943.1 	"/>
	<polygon style="fill:#27AC38;stroke:#231815;stroke-miterlimit:10;" points="1590.2,1991.2 1591.2,1981.2 1588.2,1972.2 
		1583.2,1965.2 1580.6,1957.1 1562.2,1993.2 1559.2,2002.2 1549.2,2023.2 1564.2,2024.2 1566.2,2020.2 1582.2,2020.2 1599.2,2006.9 
		1599.2,1993.6 	"/>
	<polygon style="fill:#27AC38;stroke:#231815;stroke-miterlimit:10;" points="1522.2,2084.1 1519.2,2091.1 1520.2,2100.1 
		1514.2,2112.1 1510,2112.1 1505.2,2117.1 1505.2,2129.1 1499.2,2130.1 1491.2,2148.1 1479.2,2167.1 1469.2,2190.1 1480.5,2191 
		1495.7,2194.4 1503.2,2196.1 1513.2,2175.1 1527.2,2177.1 1525.2,2171.1 1532.2,2168.1 1537.2,2155.1 1530.2,2146.1 1540.2,2119.1 
		1533.2,2112.1 1531.2,2099.1 	"/>
	<polygon style="fill:#27AC38;stroke:#231815;stroke-miterlimit:10;" points="2238.8,2018.2 2235.8,2010.2 2224.8,2006.2 
		2226.8,2001.2 2221.8,1991.2 2211.8,1969.9 2192.8,2006.2 2185.8,2029.2 2203.6,2032.7 2204.8,2035.2 2217.7,2032.7 2228.8,2027.2 
			"/>
	<polygon style="fill:#27AC38;stroke:#231815;stroke-miterlimit:10;" points="2127.6,2205.9 2112.8,2202.1 2100.8,2201.1 
		2118.8,2164.1 2134.8,2142.1 2138.8,2123.1 2144.8,2111.1 2151.8,2099.1 2153.8,2091.1 2156.8,2090.1 2160.8,2096.1 2147.8,2112.1 
		2141.8,2124.1 2140.8,2137.1 2141.8,2158.1 2144.8,2175.1 2149.8,2183.1 2136.8,2182.1 2128.8,2197.1 	"/>
	<polygon style="fill:#27AC38;stroke:#231815;stroke-miterlimit:10;" points="1144.7,2937.8 1121.7,2906.8 1109.7,2887.8 
		1058.7,2837.8 1016.7,2795.8 1004.7,2807.3 1016.7,2823.8 1017.7,2861.8 1020.7,2867.8 1029.3,2873.4 1036.7,2882.8 1055.7,2892.8 
		1099.7,2926.8 1121.9,2949 1125.7,2956.8 1132.7,2951.1 1143.7,2941.8 	"/>
	<polygon style="fill:#27AC38;stroke:#231815;stroke-miterlimit:10;" points="949.4,2884.8 949.4,2888.4 929.7,2909.8 902.7,2939.8 
		892.7,2951.8 889.7,2962.8 891.7,2974.8 889.7,2977.7 884.7,2977.7 884.7,2978.8 891.7,2984.8 892.7,2993.8 889.7,3007.8 
		894.7,3030.8 898.7,3037.8 910.7,3040.8 905.7,3058.1 899.7,3062.8 897.7,3067.2 897.7,3081.8 889.7,3094.8 882.7,3095.8 
		886.7,3098.7 921.7,3132.8 1033,3030.2 1015.7,3035.8 941.7,3038.8 929.7,3035.8 925.7,3029.8 924.7,3024.8 930.7,2999.8 
		921.7,2990.8 931.7,2976.8 932.7,2968.8 943.7,2953.8 949.4,2940.1 959.7,2933.8 963.2,2902.6 	"/>
	<polygon style="fill:#27AC38;stroke:#231815;stroke-miterlimit:10;" points="1816.3,2952.8 1805.3,2938.8 1793.3,2925.8 
		1783.3,2912.8 1776.3,2904.8 1762.3,2891.8 1751.3,2881.8 1718.3,2850.8 1713.5,2849 1715.3,2859.8 1707.3,2883.8 1706.3,2898.8 
		1715.3,2914.8 1730.3,2932.8 1751.3,2966.8 1766.3,2994.1 1766.3,2998.3 1778.3,2987.8 1781,2981.8 	"/>
	<polygon style="fill:#27AC38;stroke:#231815;stroke-miterlimit:10;" points="1726.4,3025 1722,3025.8 1696.3,3036.8 1680.3,3045.8 
		1639.3,3048.8 1615.3,3047.8 1612.3,3039.8 1614.3,3033.8 1594.3,3028.8 1578.3,3025.8 1578.3,3033.8 1586.3,3040.8 1595.3,3042.8 
		1601.3,3046.8 1608.3,3054.8 1613.3,3052.8 1618.3,3062.8 1616.3,3073.8 1616.3,3088.8 1622.3,3102.4 1622.3,3106.8 1606.3,3111.8 
		1603.3,3117.8 1591.3,3128.8 1586.3,3131.8 1583.3,3140.8 1569.3,3144.4 1572.3,3151.8 1611.3,3121.8 1664.3,3074.8 1698.3,3047.8 
		1716.3,3034.8 	"/>
	<polygon style="fill:#27AC38;stroke:#231815;stroke-miterlimit:10;" points="1565.3,3018.8 1559.3,3020.8 1556.3,3019.8 
		1550.3,3023.8 1543.3,3023.8 1539.3,3027.8 1538.3,3016.8 1538.3,3007.8 1539.3,3003.8 1538.3,3000.8 1573.3,2978.8 1578.3,2984.8 
		1561.3,3009.8 	"/>
	<polygon style="fill:#27AC38;stroke:#231815;stroke-miterlimit:10;" points="1534.3,3120.4 1525.3,3110.8 1520.3,3103.8 
		1516.8,3099.4 1519.3,3098.8 1528.3,3093.8 1528.3,3090.4 1542.3,3091.8 1542.3,3096.6 1537.3,3104.8 1534.2,3113.8 	"/>
	<polygon style="fill:#27AC38;stroke:#231815;stroke-miterlimit:10;" points="2448.9,2949 2424,2920.8 2412,2904.8 2398.1,2896.8 
		2391.9,2897.8 2360,2900.8 2343,2897.8 2343,2902.8 2363,2930.8 2378,2954.8 2398.1,2995.6 2445,2954.8 	"/>
	<polygon style="fill:#27AC38;stroke:#231815;stroke-miterlimit:10;" points="2359.1,3028.1 2355,3028.8 2336.8,3035.8 
		2312.9,3046.8 2246,3046.8 2246,3035.8 2221,3043.8 2230,3045.8 2239,3057.8 2244,3056.8 2249,3065.8 2250,3077.8 2247,3089.8 
		2255,3094.8 2251,3114.8 2238,3114.8 2223,3130.8 2216,3134.8 2211.9,3141.1 2211.9,3144.1 2208,3146.8 2203.9,3146.8 2213,3156.8 
		2285,3093.8 2319,3062.8 	"/>
	<polygon style="fill:#27AC38;stroke:#231815;stroke-miterlimit:10;" points="533.5,3805.6 536.7,3804.1 526.7,3786.8 516.2,3772.6 
		502.7,3750.8 490.6,3737.4 476.7,3737.8 477.7,3740.8 470.7,3741.8 469.7,3745.8 465.8,3753.8 469.7,3753.8 466.7,3766.8 
		476.7,3780.8 474.7,3792.8 475.7,3803.8 471.7,3816.8 476.7,3828.8 477.7,3840.8 486.7,3840.8 506.7,3813.8 522.7,3804.8 
		524.7,3798.8 530.7,3803.8 	"/>
	<polygon style="fill:#27AC38;stroke:#231815;stroke-miterlimit:10;" points="942,4835.5 926.5,4839.5 918.5,4862.5 912.3,4835.5 
		903.5,4832.5 896.5,4819.8 896.5,4811.5 878.5,4821.3 871.8,4816.9 885.5,4811.5 886.5,4804.5 897.5,4798.5 902.5,4806.5 
		909.3,4794.5 912.5,4797.5 913.5,4783.5 917.5,4783.5 917.5,4779.5 920.5,4777.5 	"/>
	<polygon style="fill:#27AC38;stroke:#231815;stroke-miterlimit:10;" points="2319.1,3986.5 2314.1,3979.5 2306.6,3969.4 
		2293.3,3966 2291.8,3960.5 2280.1,3960.5 2269.1,3957.5 2264.1,3959.5 2225.1,3956.5 2260.1,3989.5 2275.1,3985.5 2290.4,3986.5 
		2308.7,3983 	"/>
	<polygon style="fill:#27AC38;stroke:#231815;stroke-miterlimit:10;" points="1446.5,4030.5 1461.5,4025.5 1487.5,4009.5 
		1525.5,3990.5 1580.6,3968.2 1600.5,3962.5 1668.5,3936.5 1657.5,3918.5 1645.5,3913.5 1637.5,3903.5 1624.5,3899.5 1620.5,3890.5 
		1597.5,3892.5 1568.8,3861.9 1542.5,3873.5 1514.5,3891.5 1534,3912.6 1499.5,3932.5 1475.5,3938.5 1451.5,3954.5 1426.5,3975.5 
		1398.5,3991.5 1409.5,3991.5 1421.5,4005.5 	"/>
	<polygon style="fill:#27AC38;stroke:#231815;stroke-miterlimit:10;" points="933.5,2819.9 920.7,2804.8 910.7,2841.9 	"/>
	<polygon style="fill:#27AC38;stroke:#231815;stroke-miterlimit:10;" points="316.4,2851.6 312,2846.8 302.9,2846.8 302.9,2842.4 
		300,2832.8 286,2814.8 274,2844.8 264,2874.8 280,2877.8 284,2875.8 297,2875.8 301,2870.8 307,2867.8 316,2859.8 	"/>
	<polygon style="fill:#27AC38;stroke:#231815;stroke-miterlimit:10;" points="218,3046.8 190.4,3046.8 205,3006.8 221.2,2985 
		229,2986.8 232,3013.8 237,3023.8 225.6,3023.8 	"/>
	<polygon style="fill:#27AC38;stroke:#231815;stroke-miterlimit:10;" points="326.7,3663.8 326.7,3649.6 309.7,3624.8 291.8,3664.5 
		300.7,3660.7 	"/>
	<polygon style="fill:#27AC38;stroke:#231815;stroke-miterlimit:10;" points="246.6,4866.7 213.9,4881.5 210.9,4874.1 201.9,4855.7 
		211.9,4859.5 220.2,4859.5 245.9,4865.5 	"/>
</g>
<g id="b_00000170237012395729723070000001887476279318522005_">
	<path style="fill:#126BA2;stroke:#231815;stroke-miterlimit:10;" d="M1011.5,1996.2l-17,4l-7.3-4l-18.7,9l-8.3-4.5l-3.7,7.4v3.1
		l-9,30l-6,9l-21,54l-4,4l-4.5-1.1l-13.5,37.1v4l-4,4l-1,24.1l-11,28.9l-2.5,1.9l1.5,7.1l3,9l2,2v10l8,1l6,12l3,1l6-2.5l5.8-1.5h4.2
		l8-2l21.8-9.3l14.2-7.7l13-8l9-7l6-2l3,2l-3.7,3l-5.3,3l-15,10c0,0-20.3,11.9-21.2,11.9s-29.8,10.1-29.8,10.1l9,2l3,9l11,5l2-5l9-2
		v3l10-1l10-7l15-2l3.2,4l6.8,4l8-2l14-15l10-4l11-9v-6.2l8-0.8l1,5l8-6l-3-4l2-1l3-1l7-7l2-6l-3-2l8-4v-13.5l1-9.5l6-7l7,1h3v-8.4
		l-3-4.6l7-16l9-15l1-9v-8.2l-7-12.8l-1-6l-10-14v-5l5-1l2-5l-3-8l-4-3l-31-11l-1-8l-12-1l-6,3l-4-15l-12-2l-6-14L1011.5,1996.2
		L1011.5,1996.2z"/>
	<polygon style="fill:#126BA2;stroke:#231815;stroke-miterlimit:10;" points="1746.1,2107 1739,2094.1 1740.2,2087.1 1736.9,2080.9 
		1715.2,2082.1 1699.2,2087.1 1694.2,2098.1 1676.2,2105.1 1703.2,2120.1 1711.2,2137.1 1688.2,2202.1 1666.2,2195.1 1638.2,2231.1 
		1634.2,2228.1 1625.2,2237.1 1621.2,2230.1 1613.2,2253.1 1627.2,2245.1 1629.1,2249 1639.3,2253.1 1651.2,2245.1 1656.2,2237.1 
		1662.2,2238.1 1673.2,2234.1 1678.2,2223.1 1676.2,2220.1 1684.2,2220.1 1688.2,2225.1 1693.2,2222.1 1692.2,2218.1 1694.2,2213.1 
		1697.2,2214.1 1702.2,2209.1 1708.2,2202.1 1704.2,2200.1 1708.2,2196.1 1710.2,2198.1 1713.2,2192.1 1709.2,2187.1 1709.2,2184.1 
		1715.2,2174.1 1722.1,2167.1 1727.2,2170.1 1729.2,2169.1 1731.2,2162.1 1729.3,2158.1 1729.2,2149.1 1727.2,2147.1 1730.2,2145.1 
		1736.2,2137.1 1740.2,2132.1 1742.9,2126.1 1746.1,2118 	"/>
	<path style="fill:#126BA2;stroke:#231815;stroke-miterlimit:10;" d="M2406.3,4684.5l-73.5,15l-29.7-5h-19.8l-10.4-61.5l3-6.5
		l-153-65l-16-4l-16-8l-7,21l14,3l16-2h17l6,30l9,20l3,16l-2,15l-6,21l-9,18l-16,10l-26,10l-13,4l-28,1l5,11l-3,5.6l-6,13.4h5l4-7
		h12l2.2-4.7l8.8,1.7l5,5l8,5l3,3l10-4l2,5h7l5,11l1,7l17-7l4-6.5v4.5l6,1.8v13.8l4-6v-10.4l3-9.2v-9l4.5-2.4v-5l-4.5-5.6l1-12l-8-5
		l7-6l12-2l4-8l7,6l1-2h2l-3,7l-7,4l11,1l2,6l5-3l21,4l7-1l7-3l6,2l7,1l12,4l14,11l9,4l-22,50l-15,1l-6-1l-8-7l-4,12l-6,7l-9,6
		l-17-1l-18-6l-6-9l-13-7l-2,8l-1,11v11l-11,18l-5,6l-8-2l-3,3h-8l3,4l4,4l-3,1l-10-4l-2,2l-0.6,3.3l6.6,5.7l12,3l1,3l5,6l7-1l4-5h4
		l4-6l2-5l3.5,4l7.5,2l1,3l3-1l5,3l10.7,6l12.3,9l13-5l4-2l13-14l7-10l8,2l7-3l8,3l5,5l13,2l9-2l18-1l6,10l12-7l8-4l5-10h18l7-3l4-9
		l-1-5l6-14l10,3l14-1l3-11c0,0-7-11-9-11s18-20,18-20l5-3l12-34l-5-11v-10L2406.3,4684.5L2406.3,4684.5z"/>
	<path style="fill:#126BA2;stroke:#231815;stroke-miterlimit:10;" d="M1759.1,4684.4l-1.9,33.1l1.9,9.1l2.6,7.9l-4.5,17.7l-11,19.3
		l-15,15l7,9l-1,12l-6,6.8l-21-4.8l-6,16v7l-8,6l-23,4l-5,8l-8,4l-7,6l-13-8.7l-10,0.7l-18,1l-18-6l-13.6,0.7l-12.4,1.3l-8.9,11
		l-15.1,14h-12l-13-7l-27-15l-15,12l-12,1l-7-6l4-4l-13-2l-10-8l-9-18l-3-13l4-13l-4-5l-10,1.6v-5.7l-3-9.9l6-9l6-3l-1-12l-11-10.5
		v-4.7l-8,4.2l-12-2l-6-6l6-4l1-5.5v-4.2l5,1.7l3,3l8,4l-5-9l-8-3.1l-3-35.9l6-10l26,3l2-7l-8-10l-4-8.4l-8-10.6l-4-9l2-10l2-7l1-10
		l6,1l1,3.9l4,6.1l5,3l7,2v-10l-6-11l-3-11l-2-4l-3-5l-8-1.2l-3,4.2l-2,2l-6-1l-3,4l-5,7l2,7l-2,6l-6.5,4.2l-17.5,2.8l-11-3l-5-3
		v-5.4l4-1.6l2-8l8-1l4-3l6-4l6,3l6-3l-1.1-7.2h-4.4l-2.5-8.8l-2-6l4-11l10-9v-7l5-5l5,1h2l3,25l6,2l2-3l8,4l5-3l-6-6l6-6l-0.4-4
		l-10.6-2.6l-8-3.4l2-5.2l-2-3.8l6-5l2-6.6l5-8.4c0,0,2-2,2-4v-11l-3-5l7.6-3.4l19.4,46.4l35,12l53,28l24,6l62,31l15,5l-10,43l3,6
		l-2,5l49,15l33,4L1759.1,4684.4L1759.1,4684.4z"/>
	<polygon style="fill:#126BA2;stroke:#231815;stroke-miterlimit:10;" points="2375.8,2090.6 2379.8,2102.1 2377.8,2108.5 
		2384.8,2120.8 2382.1,2151.1 2376.8,2153.1 2368.8,2160.1 2348.8,2167.1 2344.8,2160.1 2349.8,2152.1 2338.8,2132.1 2306.8,2115.1 
		2329.8,2106.1 2334.8,2099.1 2351.8,2092.1 2356.8,2094.1 2363.8,2094.1 	"/>
	<polygon style="fill:#126BA2;stroke:#231815;stroke-miterlimit:10;" points="2370.5,2179.7 2368.8,2184.1 2364.8,2185.1 
		2356.8,2190.1 2356.8,2195.6 2349.8,2201.1 2352.8,2208.1 2352.8,2213.1 2345.8,2216.4 2345.8,2219 2342.8,2223.1 2342.8,2227.7 
		2337.8,2231.1 2330.5,2231.1 2330.5,2237 2324.1,2237.4 2335.8,2219.1 2343.8,2201.1 2354.8,2190.1 	"/>
	<polygon style="fill:#126BA2;stroke:#231815;stroke-miterlimit:10;" points="1106.7,2985.3 1101.7,2992.8 1104.2,2997.5 
		1101.7,3004.3 1094.8,3004.3 1089.7,3014.8 1085.7,3022.8 1088.7,3026.8 1087.7,3031.8 1082.7,3034.8 1082.7,3041.1 1074.7,3050 
		1064.4,3056.5 1077.3,3038.8 1092.2,2991.3 1095.7,2992.8 	"/>
	<polygon style="fill:#126BA2;stroke:#231815;stroke-miterlimit:10;" points="449.5,2925.1 458,2954.8 458,2965.2 453.8,2978.1 
		453.8,2984.4 424,2996.8 423,2991.8 425,2987.8 415,2971.3 415,2964.8 391.5,2953.1 389.9,2948.9 407,2941.8 415,2931.8 
		425,2926.8 436,2926.8 	"/>
	<polygon style="fill:#126BA2;stroke:#231815;stroke-miterlimit:10;" points="432.1,3018.3 427,3024.8 430,3033.8 430,3039.8 
		424,3041.6 427,3043.8 422,3048.8 422,3051.5 416,3055.8 413,3053.6 417.4,3046.8 422.1,3023.8 	"/>
	<polygon style="fill:#126BA2;stroke:#231815;stroke-miterlimit:10;" points="1737.9,3022.7 1735.9,3027.8 1730.3,3037.8 
		1732.3,3044.8 1730.3,3051.7 1725.3,3052.8 1725.3,3055.8 1722.3,3062.8 1714,3065.6 1724.3,3046.8 1733.8,3023.5 	"/>
	<polygon style="fill:#126BA2;stroke:#231815;stroke-miterlimit:10;" points="2388.9,3023 2385,3026.8 2375,3030.8 2371,3045.8 
		2369,3053.8 2363,3062.8 2361,3072.8 2352,3075.8 2351,3079.8 2344,3080.7 2357,3061.8 2375.9,3025.2 	"/>
</g>
</svg>
